<?xml version="1.0" standalone="no"?><!DOCTYPE svg PUBLIC "-//W3C//DTD SVG 1.1//EN" "http://www.w3.org/Graphics/SVG/1.1/DTD/svg11.dtd"><svg t="1522302349307" class="icon" style="" viewBox="0 0 1024 1024" version="1.1" xmlns="http://www.w3.org/2000/svg" p-id="1867" xmlns:xlink="http://www.w3.org/1999/xlink" width="200" height="200"><defs><style type="text/css"></style></defs><path d="M419.328 745.472c-7.68 0-15.189333 1.365333-22.528 1.877333a17.066667 17.066667 0 0 0 1.024 34.133334h1.194667l23.552-2.048a17.066667 17.066667 0 1 0-3.242667-34.133334zM109.568 415.061333a17.066667 17.066667 0 0 0 17.066667-17.066666 121.685333 121.685333 0 0 1 68.266666-109.397334 17.066667 17.066667 0 1 0-14.506666-30.890666 156.16 156.16 0 0 0-88.576 140.288 17.066667 17.066667 0 0 0 17.749333 17.066666zM133.973333 521.216A24.405333 24.405333 0 1 0 109.568 546.133333a24.234667 24.234667 0 0 0 24.405333-24.917333z" fill="#1296db" p-id="1868"></path><path d="M284.672 240.810667m-24.234667 0a24.234667 24.234667 0 1 0 48.469334 0 24.234667 24.234667 0 1 0-48.469334 0Z" fill="#1296db" p-id="1869"></path><path d="M940.885333 223.402667l-129.365333-90.112a34.133333 34.133333 0 0 0-54.101333 28.330666v27.648a265.898667 265.898667 0 0 0-107.178667 30.037334 381.098667 381.098667 0 0 0-176.298667-28.842667 17.066667 17.066667 0 0 0 2.56 34.133333 351.914667 351.914667 0 0 1 137.557334 17.066667 244.736 244.736 0 0 0-20.48 17.066667 326.826667 326.826667 0 0 0-90.794667-12.8 322.218667 322.218667 0 0 0-198.144 68.266666 102.4 102.4 0 0 0-114.517333 168.277334 307.2 307.2 0 0 0-7.168 29.525333C119.466667 564.224 90.112 620.544 102.4 670.549333s65.194667 86.869333 145.749333 102.4A324.266667 324.266667 0 0 0 822.272 631.466667c63.317333-51.2 93.354667-108.032 80.725333-158.890667a104.618667 104.618667 0 0 0-34.133333-53.418667 17.066667 17.066667 0 0 0-22.186667 24.576A73.386667 73.386667 0 0 1 870.4 480.597333c7.338667 29.696-8.533333 64.682667-42.325333 99.328v-8.533333a326.656 326.656 0 0 0-109.738667-243.370667c12.970667-1.706667 25.941333-3.072 39.082667-3.584v17.066667a34.133333 34.133333 0 0 0 54.101333 28.16l129.365333-90.112a34.133333 34.133333 0 0 0 0-56.490667z m-692.906666 106.837333a68.266667 68.266667 0 1 1-68.266667 68.266667 68.266667 68.266667 0 0 1 68.266667-68.266667zM135.509333 662.357333c-7.168-29.184 8.192-64.170667 42.154667-99.328v8.362667a324.266667 324.266667 0 0 0 42.154667 159.573333c-46.762667-14.165333-76.8-38.570667-84.309334-68.608z m658.432-90.965333a297.130667 297.130667 0 0 1-3.242666 41.130667 533.845333 533.845333 0 0 1-85.333334 51.2 65.706667 65.706667 0 0 0-116.736 41.472v4.778666c-16.042667 4.949333-32.426667 9.557333-48.810666 13.653334s-31.573333 7.338667-47.274667 10.410666a17.066667 17.066667 0 0 0 3.242667 34.133334 9.386667 9.386667 0 0 0 3.072 0c17.066667-3.072 32.938667-6.656 49.152-10.752s34.133333-9.216 51.2-14.506667a65.877333 65.877333 0 0 0 119.466666-37.034667 67.072 67.072 0 0 0-1.024-10.24 640.341333 640.341333 0 0 0 59.392-34.133333 290.133333 290.133333 0 0 1-477.866666 118.442667c14.165333 1.194667 28.842667 2.048 44.032 2.218666a17.066667 17.066667 0 0 0 17.066666-17.066666 17.066667 17.066667 0 0 0-17.066666-17.066667 512 512 0 0 1-77.653334-6.485333 290.133333 290.133333 0 0 1-55.978666-170.666667 294.058667 294.058667 0 0 1 12.288-74.752 96.085333 96.085333 0 0 0 26.453333 3.584 102.4 102.4 0 0 0 81.749333-162.304 290.133333 290.133333 0 0 1 237.056-50.005333 268.629333 268.629333 0 0 0-47.445333 89.6 17.066667 17.066667 0 0 0 16.213333 22.016 17.066667 17.066667 0 0 0 10.24-3.242667 360.448 360.448 0 0 1 128.682667-59.562667 292.693333 292.693333 0 0 1 119.125333 235.178667z m-107.52 134.656a31.744 31.744 0 1 1-31.573333-31.744 31.573333 31.573333 0 0 1 31.573333 31.744zM921.6 251.904L791.552 341.333333v-34.133333a17.066667 17.066667 0 0 0-17.066667-17.066667 431.957333 431.957333 0 0 0-201.216 48.298667 231.082667 231.082667 0 0 1 201.216-115.370667 17.066667 17.066667 0 0 0 17.066667-17.066666V161.450667L921.6 251.392z" fill="#1296db" p-id="1870"></path></svg>