<?xml version="1.0" standalone="no"?><!DOCTYPE svg PUBLIC "-//W3C//DTD SVG 1.1//EN" "http://www.w3.org/Graphics/SVG/1.1/DTD/svg11.dtd"><svg t="1522302164072" class="icon" style="" viewBox="0 0 1024 1024" version="1.1" xmlns="http://www.w3.org/2000/svg" p-id="1131" xmlns:xlink="http://www.w3.org/1999/xlink" width="200" height="200"><defs><style type="text/css"></style></defs><path d="M1024 512.942c0-136.479-53.048-264.704-149.391-361.073C778.24 55.444 649.953 2.365 513.362 2.365c-136.566 0-264.822 53.08-361.165 149.504C55.89 248.233 2.842 376.463 2.842 512.942c0 68.89 13.48 135.736 40.048 198.656 25.687 60.815 62.464 115.4 109.312 162.273 96.4 96.487 224.656 149.591 361.165 149.591 65.08 0 128.256-12.144 187.049-35.24-5.883-12.662-11.49-25.462-14.935-39a466.499 466.499 0 0 1-172.088 32.825c-258.647 0-469.049-210.437-469.049-469.08 0-258.672 210.432-469.135 469.049-469.135 258.677 0 469.166 210.458 469.166 469.136 0 40.192-5.12 79.186-14.705 116.454a50.642 50.642 0 0 0-7.199-0.512c-27.868 0-50.514 22.61-50.514 50.514s22.646 50.514 50.514 50.514a50.509 50.509 0 0 0 43.582-76.058A508.948 508.948 0 0 0 1024 512.942z" fill="#1296db" p-id="1132"></path><path d="M802.514 568.458c-22.554-84.162-70.825-149.13-146.314-193.305-8.674-5.064-17.833-9.329-26.793-13.942 0.056-0.113 0.107-0.4 0.286-0.568 1.506-1.455 3.016-2.873 4.552-4.322 15.503-14.848 29.466-32.03 36.751-52.28 3.523-9.815 4.409-14.106 6.856-23.209 4.583-28.79-0.68-46.305-17.807-60.872-23.127-19.655-49.357-21.985-77.087-10.44-1.905 0.794-3.185 1.368-5.09-0.424-35.67-33.736-92.953-34.048-128.854-0.743-1.68 1.567-2.903 1.936-5.064 0.942-14.592-6.717-29.809-8.135-45.455-4.92-29.64 6.118-54.16 31.35-49.777 65.792 3.784 29.896 15.36 55.721 35.302 78.024 4.096 4.551 8.448 8.898 12.857 13.537-1.106 0.538-2.192 1.111-3.297 1.592C291.635 409.97 222.77 511.288 214.692 626.545c-2.222 31.887-0.369 63.436 7.65 94.694 12.6 49.234 55.894 86.098 107.862 85.985 122.48-0.286 244.992 0.026 367.468-0.143 39.342-0.082 69.637-17.751 91.622-49.92 11.151-16.323 16.384-34.929 19.425-54.38 7.112-45.23 5.658-90.091-6.205-134.323m-35.64 108.974c-2.53 17.178-5.29 35.22-14.618 49.639-18.345 28.441-53.499 44.032-86.328 44.088-102.257 0.138-204.508-0.118-306.74 0.138-43.376 0.108-84.31-24.975-94.832-68.464-6.682-27.623-5.975-62.157-4.096-90.317 6.743-101.832 95.432-197.857 180.505-239.043 0.912-0.455-24.52-23.639-27.934-27.673-16.666-19.687-27.08-35.64-30.208-62.04-3.866-32.399 19.456-41.958 33.566-45.055 13.056-2.873 40.791 11.607 42.184 10.24 29.978-29.44 77.793-29.154 107.576 0.655 1.593 1.618 2.647 1.08 4.27 0.4 23.148-10.21 42.691-16.497 62.004 0.88 14.28 12.856 14.617 22.415 11.125 42.609-2.135 8.36-15.36 30.776-20.398 37.719-18.631 25.656-36.89 42.014-38.138 43.294-0.144 0.144 39.848 19.625 46.504 24.92 61.727 48.84 103.312 86.614 122.138 160.967 9.84 39.081 19.343 77.082 13.42 117.043" fill="#1296db" p-id="1133"></path><path d="M451.625 599.987v87.434c0 2.448-1.004 4.373-3.01 5.796-2.008 1.413-4.091 2.074-6.252 1.982-1.956 0-3.86-0.686-5.709-2.053-1.853-1.373-2.78-3.277-2.78-5.72V523.11c0-7.623 0.102-12.928 0.307-15.913 0.21-2.98 2.058-6.185 5.555-9.605 3.497-3.42 9.175-5.181 17.024-5.284h67.482c19.364 0 32.128 0.932 38.292 2.786 6.165 1.858 11.1 3.886 14.823 6.082 3.717 2.197 7.572 5.397 11.591 9.595 4.004 4.199 7.184 9.595 9.534 16.19 2.345 6.59 3.522 12.677 3.522 18.242-0.102 5.955-1.024 11.254-2.79 15.893-1.761 4.638-3.589 8.448-5.499 11.428a38.451 38.451 0 0 1-6.38 7.69 40.814 40.814 0 0 1-7.556 5.494c-2.688 1.51-4.992 2.585-6.897 3.22a30.249 30.249 0 0 0-4.772 1.981c-1.27 0.681-1.858 1.51-1.761 2.489 0 0.68 1.152 1.607 3.45 2.78 2.294 1.172 4.133 2.422 5.5 3.738s2.785 3.302 4.254 5.939c1.465 2.642 2.668 5.253 3.595 7.844 0.926 2.595 1.781 5.75 2.565 9.466l3.23 18.775 2.929 14.229c0.978 5.187 1.761 9 2.35 11.443 0.584 2.448 2.294 6.042 5.135 10.783 2.837 4.746 4.107 7.895 3.815 9.462-0.492 1.76-1.761 3.543-3.815 5.355s-3.957 2.714-5.724 2.714c-1.761 0.097-3.86-0.66-6.302-2.274s-4.67-5.135-6.677-10.562a147.891 147.891 0 0 1-4.838-15.473c-1.224-4.89-2.325-10.951-3.308-18.191l-2.642-18.34c-1.075-6.062-2.468-10.854-4.178-14.377s-3.886-6.482-6.528-8.873a30.792 30.792 0 0 0-9.164-5.719c-3.477-1.418-7.558-2.13-12.253-2.13h-86.118z m0-17.31h80.83c6.456 0 12.2-0.415 17.238-1.245 5.033-0.83 10-2.493 14.89-4.992s8.75-5.55 11.591-9.17c2.837-3.614 4.961-7.285 6.38-10.997 1.418-3.723 2.13-7.337 2.13-10.86-0.103-3.522-1.08-7.65-2.934-12.395-1.859-4.742-4.28-8.587-7.26-11.515-2.985-2.934-5.996-5.212-9.027-6.82a49.89 49.89 0 0 0-9.682-3.891c-3.425-0.973-8.018-1.47-13.788-1.47h-70.712c-5.77 0-9.754 0.051-11.956 0.149-2.201 0.102-4.034 0.952-5.498 2.57-1.47 1.608-2.202 4.23-2.202 7.844v62.791z" fill="#1296db" p-id="1134"></path></svg>